<svg xmlns="http://www.w3.org/2000/svg" version="1.1" xmlns:xlink="http://www.w3.org/1999/xlink" xmlns:svgjs="http://svgjs.dev/svgjs" viewBox="0 0 800 800"><defs><linearGradient x1="50%" y1="0%" x2="50%" y2="100%" id="uundulate-grad"><stop stop-color="hsl(265, 55%, 30%)" stop-opacity="1" offset="45%"></stop><stop stop-color="hsl(265, 55%, 60%)" stop-opacity="1" offset="100%"></stop></linearGradient></defs><g stroke-width="2" stroke="url(#uundulate-grad)" fill="none"><path d="M650.3256459098086 241.38069511290996C686.3537196576691 320.24611337023384 682.2307604617666 494.4731563435349 642.5125163564713 571.5460918012955C602.794272251176 648.6190272590561 527.8307500951071 627.8586696876223 459.67807420439215 611.3307853101603C391.52539831367733 594.8029009326983 384.17310851084767 576.4343230585284 315.3796720810394 492.21224678947704C246.58623565123094 407.99017052042564 97.34497719845712 269.4023530985746 129.46957934131154 207.06481921871273C161.59418148416603 144.72728533885078 361.0660818316371 185.8429433548493 469.5777623667408 192.99208416614056C578.0894429018444 200.14122497743176 614.2975721619482 162.51527685558602 650.3256459098086 241.38069511290996C686.3537196576691 320.24611337023384 682.2307604617666 494.4731563435349 642.5125163564713 571.5460918012955 "></path><path d="M638.9471519728571 248.5906676783565C673.3375860049057 323.8712941967112 669.4020340451806 490.17892612577134 631.4891646719443 563.7485463354519C593.5762952987078 637.3181665451325 522.0202059679146 617.501461590582 456.9653789813233 601.7248446848228C391.9105519947318 585.9482277790637 384.8924571829399 568.4145852628105 319.2259951363046 488.02078518780695C253.55953308966934 407.62698511280337 111.10196820293066 275.3386139374001 141.7663611574735 215.83460432480462C172.43075411201642 156.33059471220912 362.8357498982389 195.57735918202593 466.41508131811054 202.40153904734933C569.9944127379822 209.2257189126728 604.5567179408085 173.3100411600019 638.9471519728571 248.5906676783565C673.3375860049057 323.8712941967112 669.4020340451806 490.17892612577134 631.4891646719443 563.7485463354519 "></path><path d="M627.5686885534838 255.80064024380306C660.3214828697204 327.49647502318845 656.5733381461728 485.88469590800764 620.4658435049953 555.9510008696082C584.3583488638178 626.0173058312087 516.2096923583003 607.1442534935416 454.25271427583243 592.1189040594852C392.2957361933643 577.0935546254289 385.61183637261024 560.3948474670926 323.07234870914795 483.82932358613675C260.5328610456858 407.263799705181 124.85898972498234 281.27487477622554 154.06317349121366 224.6043894308965C183.26735725744493 167.93390408556746 364.60544848241875 205.3117750092025 463.2524307870584 211.81099392855816C561.8994130916981 218.31021284791382 594.815894237247 184.10480546441772 627.5686885534838 255.80064024380306C660.3214828697204 327.49647502318845 656.5733381461728 485.88469590800764 620.4658435049953 555.9510008696082 "></path><path d="M616.1903166868447 263.01061280924966C647.3054712872696 331.12165584966573 643.7447337998992 481.59046569024395 609.4426138907806 548.1534554037644C575.1404939816621 614.716445117285 510.39927030142053 596.7870453965013 451.54014112307595 582.5129634341478C392.68101194473127 568.2388814717942 386.33130711501485 552.3751096713747 326.91879383472576 479.63786198446667C267.50628055443667 406.9006142975586 138.61610279976833 287.211135615051 166.36007737768813 233.3741745369884C194.10405195560787 179.5372134589258 366.375238619333 215.04619083637908 460.08987180874055 221.220448809767C553.8045049981483 227.39470678315485 585.0751620864198 194.89956976883354 616.1903166868447 263.01061280924966C647.3054712872696 331.12165584966573 643.7447337998992 481.59046569024395 609.4426138907806 548.1534554037644 "></path><path d="M604.8118685262605 270.2205853746962C634.2893834108734 334.74683667614306 630.9160531596804 477.29623547248025 598.4193079826207 540.3559099379207C565.922562805561 603.4155844033612 504.5887719505954 586.4298372994608 448.82749167637417 572.9070228088101C393.06621140215293 559.3842083181594 387.05070156347415 544.3553718756568 330.76516266635815 475.4464003827966C274.4796237692422 406.53742888993634 152.37313958060906 293.1473964538764 178.65690497021728 242.14395964308028C204.94067035982545 191.14052283228415 368.14495246230183 224.78060666355566 456.9272365364776 230.62990369097577C545.7095206106533 236.47920071839587 575.3343536416473 205.69433407324937 604.8118685262605 270.2205853746962C634.2893834108734 334.74683667614306 630.9160531596804 477.29623547248025 598.4193079826207 540.3559099379207 "></path><path d="M593.4333898480979 277.43055794014276C621.2732650168991 338.37201750262034 618.0873420018836 473.00200525471666 587.3959715568826 532.5583644720771C556.7046011118819 592.1147236894376 498.77824308219215 576.0726292024206 446.11481171209425 563.3010821834725C393.45138034199636 550.5295351645248 387.7700654943553 536.3356340799389 334.61150098041253 471.2549387811265C281.4529364664697 406.17424348231407 166.13014584387167 299.0836572927019 190.9537020451683 250.91374474917217C215.77725824646495 202.7438322056425 369.91463578769265 234.5150224907323 453.7645707466363 240.0393585721846C537.6145057055801 245.5636946536369 565.5935146792966 216.4890983776652 593.4333898480979 277.43055794014276C621.2732650168991 338.37201750262034 618.0873420018836 473.00200525471666 587.3959715568826 532.5583644720771 "></path><path d="M582.0549874638807 284.64053050558937C608.2572229168701 341.9971983290976 605.2587071380319 468.70777503695297 576.37271142509 524.7608190062334C547.486715712148 580.8138629755138 492.9677905077341 565.7154211053801 443.40220804175965 553.695141558135C393.8366255757852 541.6748620108899 388.4895057191819 528.315896284221 338.4579155884121 467.0634771794563C288.4263254576424 405.8110580746917 179.8872284010796 305.0199181315273 203.25057541406466 259.68352985526406C226.61392242704972 214.3471415790009 371.68439540702866 244.24943831790887 450.60198125074044 249.44881345339343C529.5195670944522 254.64818858887793 555.8527520108913 227.28386268208106 582.0549874638807 284.64053050558937C608.2572229168701 341.9971983290976 605.2587071380319 468.70777503695297 576.37271142509 524.7608190062334 "></path><path d="M570.6765850796635 291.8504725534578C595.241180816841 345.6223486379968 592.4300722741802 464.41351430161126 565.3494512932972 516.9632430228116C538.2688303124141 569.512971744012 487.15733793327604 555.3581824907617 440.68960437142505 544.0891704152194C394.22187080957406 532.8201583396772 389.2089459440084 520.296127970925 342.3043301964118 462.8719850602081C295.39971444881513 405.4478421494912 193.64431095828752 310.95614845277464 215.547448782961 268.4532844437779C237.45058660763448 225.95042043478105 373.4541550263648 253.98382362750732 447.43939175484456 258.8582378170241C521.4246284833243 263.73265200654083 546.111989342486 238.07859646891876 570.6765850796635 291.8504725534578C595.241180816841 345.6223486379968 592.4300722741802 464.41351430161126 565.3494512932972 516.9632430228116 "></path><path d="M559.2981369190793 299.0604298601153C582.2250929404449 349.24751420568504 579.6013916339616 460.1192688250585 554.3261453851374 509.1656822981788C529.0508991363131 558.2120957712991 481.3468395824509 545.0009591349321 437.97695492472326 534.4832145310928C394.6070702669956 523.9654699272534 389.92834039246776 512.276374916418 346.1506990280442 458.68050819974894C302.37305766362067 405.08464148307985 207.40134773912825 316.892394032811 227.84427637549015 277.2230542910807C248.2872050118521 237.5537145493504 375.2238688693337 263.7182241958949 444.2767564825815 268.26767743944384C513.3296440958293 272.8171306829928 536.3711808977134 248.87334551454552 559.2981369190793 299.0604298601153C582.2250929404449 349.24751420568504 579.6013916339616 460.1192688250585 554.3261453851374 509.1656822981788 "></path><path d="M547.9196582409168 306.2704024255618C569.2089745464706 352.87269503216237 566.7726804761646 455.8250386072948 543.3028089593993 501.36813683233515C519.8329374426339 546.9112350573755 475.53631071404766 534.6437510378919 435.26427496044334 524.8772739057553C394.99223920683914 515.1107967736186 390.647704323349 504.25663712070013 349.99703734209857 454.48904659807886C309.34637036084814 404.72145607545747 221.15835400239087 322.82865487163645 240.14107345044118 285.9928393971726C259.12379289849156 249.15702392270873 376.99355219472454 273.45264002307147 441.1140906927403 277.6771323206526C505.2346291907561 281.9016246182338 526.6303419353628 259.66810981896134 547.9196582409168 306.2704024255618C569.2089745464706 352.87269503216237 566.7726804761646 455.8250386072948 543.3028089593993 501.36813683233515 "></path><path d="M536.5412100803323 313.4803902497975C556.1928866700745 356.4978911174287 553.9439998359459 451.53082364832017 532.2795030512393 493.57060662528056C510.6150062665329 535.6103896022408 469.7258123632224 524.2865581996406 432.55162551374156 515.2713485392068C395.37743866426075 506.25613887877296 391.3670987718083 496.2369145837712 353.84340617373095 450.2976002551977C316.3197135756537 404.3582859266242 234.9153907832316 328.76493096925094 252.4379010429704 294.76263976205354C269.9604113027092 260.76034855485614 378.7632660376934 283.1870711090371 437.95145542047726 287.0866024606505C497.13964480326104 290.9861338122639 516.8895334905903 270.4628893821662 536.5412100803323 313.4803902497975C556.1928866700745 356.4978911174287 553.9439998359459 451.53082364832017 532.2795030512393 493.57060662528056 "></path><path d="M525.1628229549043 320.69036281524404C543.1768598288345 360.123071943906 541.1153802308834 447.23659343055647 521.2562581782356 485.7730611594368C501.3971361255881 524.3095288883171 463.91537504755354 513.9293501026002 429.839037102196 505.6654079138692C395.76269915683866 497.4014657251382 392.08655425542383 488.2171767880533 357.6898360405197 446.1061386535275C323.29311782561547 403.9951005190019 248.67248859922853 334.7011918080764 264.7347896706558 303.5324248681454C280.797090742083 272.3636579282145 380.53304091581856 292.92148693621374 434.78888118337045 296.49605734185934C489.0447214509222 300.07062774750494 507.1487860809741 281.2576536865821 525.1628229549043 320.69036281524404C543.1768598288345 360.123071943906 541.1153802308834 447.23659343055647 521.2562581782356 485.7730611594368 "></path><path d="M513.7843595355309 327.90032012190153C530.1607566936493 363.7482375115942 528.2866843318754 442.9423479540038 510.2329370112867 477.9755004348041C492.17918969069797 513.0086529156043 458.10486143793923 503.5721267467708 427.1263723967053 496.0594520297426C396.1478833554712 488.5467773127144 392.8059334450942 480.1974237335463 361.53618961336304 441.9146617930684C330.266445781632 403.6318998525905 262.4295101212802 340.63743738811274 277.0316020043959 312.30219471544825C291.6336938875115 283.96695204278376 382.30273949999844 302.65588750460125 431.62623065231827 305.90549696427905C480.9497218046381 309.1551064239569 497.40796237741256 292.05240273220886 513.7843595355309 327.90032012190153C530.1607566936493 363.7482375115942 528.2866843318754 442.9423479540038 510.2329370112867 477.9755004348041 "></path><path d="M502.40591137494664 335.1102926873481C517.1446688172531 367.37341833807153 515.4580036916566 438.6481177362401 499.20963110312675 470.1779549689604C482.9612585145969 501.7077922016806 452.2943630871141 493.2149186497304 424.4137229500035 486.45351140440505C396.53308281289287 479.6921041590797 393.5253278935535 472.1776859378284 365.3825584449955 437.7232001913983C337.23978899643754 403.26871444496817 276.18654690212094 346.57369822693823 289.32842959692505 321.07197982154014C302.47031229172916 295.5702614161421 384.0724533429673 312.39030333177783 428.4635953800552 315.3149518454879C472.85473741714304 318.23960035919794 487.6671539326401 302.8471670366247 502.40591137494664 335.1102926873481C517.1446688172531 367.37341833807153 515.4580036916566 438.6481177362401 499.20963110312675 470.1779549689604 "></path><path d="M491.02749373194035 342.32028051158375C504.128611458435 370.99861442333787 502.62935356901596 434.35390277726555 488.18635571254504 462.3804247619057C473.743357856074 490.40694674654594 446.48389525386705 482.8577258114791 421.7011040208798 476.84758603785656C396.9183127878926 470.837446264234 394.24475285959096 464.1579634008996 369.22895779420605 433.5317538485172C344.2131627288212 402.9055442961349 289.9436142005398 352.50997432455273 301.6252877070323 329.8417801864211C313.30696121352486 307.1735860482895 385.84219770351433 322.1247344177435 425.3009906253702 324.7244219854858C464.7597835472261 327.324109553228 477.9263760054457 313.64194659982957 491.02749373194035 342.32028051158375C504.128611458435 370.99861442333787 502.62935356901596 434.35390277726555 488.18635571254504 462.3804247619057 "></path><path d="M479.6490608301451 349.53023781824123C491.11253884082794 374.62377999102614 489.8006881875863 430.05965730071284 477.16306506317414 454.582864037273C464.525441938762 479.10607077383315 440.6734121618309 472.50050245564967 418.9884698329671 467.24163015373C397.3035275041033 461.9827578518103 394.9641625668394 456.1382103463926 373.07534188462756 429.34027698805806C351.1865212024158 402.5423436297235 303.7006662401696 358.4462199045891 313.92213055835055 338.6115500337239C324.1435948765315 318.7768801628588 387.61192680527233 331.85913498613104 422.1383706118962 334.1338616079055C456.6648144185201 336.40858822968 468.1855828194622 324.4366956454564 479.6490608301451 349.53023781824123C491.11253884082794 374.62377999102614 489.8006881875863 430.05965730071284 477.16306506317414 454.582864037273 "></path><path d="M468.27062792834977 356.74017986610966C478.09646622322083 378.2489302999253 476.97202280615653 425.765396565371 466.13977441380325 446.7852880538512C455.30752602145003 467.80517954233136 434.8629290697948 462.1432638410312 416.27583564505437 457.6356590108143C397.688742220314 453.1280541805974 395.68357227408774 448.1184420330965 376.92172597504907 425.1487848688098C358.1598796760104 402.179127704523 317.4577182797994 364.3824502258364 326.21897340966876 347.3813046222377C334.9802285395382 330.380159018639 389.38165590703034 341.5935202957295 418.9757505984222 343.5432859715362C448.5698452898141 345.4930516473429 458.44478963347876 335.2314294322941 468.27062792834977 356.74017986610966C478.09646622322083 378.2489302999253 476.97202280615653 425.765396565371 466.13977441380325 446.7852880538512 "></path><path d="M456.89219502655453 363.95015243155626C465.0803936056137 381.87411112640257 464.1433574247268 421.4711663476074 455.1164837644324 438.9877425880075C446.08961010413805 456.50431882840763 429.0524459777587 451.78605574399086 413.5632014571417 448.02971838547677C398.07395693652467 444.2733810269627 396.40298198133615 440.0987042373786 380.7681100654706 420.95732326713966C365.13323814960506 401.8159422969007 331.2147703194292 370.31871106466184 338.515816260987 356.15108972832957C345.8168622025448 341.98346839199735 391.1513850087883 351.32793612290607 415.8131305849482 352.952740852745C440.4748761611081 354.5775455825839 448.70399644749534 346.0261937367099 456.89219502655453 363.95015243155626C465.0803936056137 381.87411112640257 464.1433574247268 421.4711663476074 455.1164837644324 438.9877425880075 "></path><path d="M445.5137316071811 371.1601249970028C452.06429047042843 385.4992919528799 451.3146615257189 417.17693612984374 444.09316259748346 431.1901971221638C436.87166366924794 445.2034581144839 423.2419323681445 441.4288476469505 410.85053675165085 438.4237777601392C398.4591411351572 435.41870787332795 397.1223611710064 432.0789664416607 384.61446363831396 416.7658616654696C372.10656610562154 401.45275688927836 344.97179184148087 376.2549719034873 350.81262859472713 364.9208748344215C356.65346534797334 353.5867777653557 392.9210835929681 361.0623519500827 412.65048005389605 362.3621957339538C432.379876514824 363.66203951782495 438.9631727439338 356.8209580411257 445.5137316071811 371.1601249970028C452.06429047042843 385.4992919528799 451.3146615257189 417.17693612984374 444.09316259748346 431.1901971221638 "></path><path d="M434.1353139641749 378.37009756244936C439.04823311161044 389.1244727793572 438.48601140307824 412.88270591208004 433.0698872069016 423.39265165632014C427.653763010725 433.90259740056024 417.43146453489743 431.0716395499102 408.1379178225272 428.8178371348017C398.844371110157 426.56403471969327 397.84178613704387 424.0592286459428 388.46086298752454 412.57440006379943C379.0799398380052 401.08957148165604 358.72885913989967 382.19123274231276 363.1094867048344 373.6906599405134C367.4901142697691 365.19008713871403 394.69082795351517 370.7967677772593 409.4878752992111 371.7716506151626C424.28492264490706 372.746533453066 429.2223948167394 367.61572234554154 434.1353139641749 378.37009756244936C439.04823311161044 389.1244727793572 438.48601140307824 412.88270591208004 433.0698872069016 423.39265165632014 "></path><path d="M422.75688106237965 385.5800701278959C426.0321604940033 392.74965360583445 425.65734602164855 408.5884756943164 422.0465965575308 415.59510619047643C418.43584709341303 422.6017366866365 411.6209814428613 420.7144314528698 405.4252836346145 419.21189650946417C399.22958582636767 417.70936156605853 398.5611958442923 416.03949085022487 392.30724707794604 408.3829384621293C386.05329831159986 400.7263860740337 372.48591117952947 388.1274935811382 375.4063295561526 382.4604450466053C378.32674793277573 376.7933965120724 396.4605570552731 380.53118360443585 406.3252552857371 381.18110549637146C416.18995351620106 381.831027388307 419.48160163075596 378.4104866499574 422.75688106237965 385.5800701278959C426.0321604940033 392.74965360583445 425.65734602164855 408.5884756943164 422.0465965575308 415.59510619047643 "></path><path d="M411.3784329017953 392.79002743455345C413.0160726176071 396.3748191735227 412.82866538142974 404.29423021776364 411.02329064937084 407.7975454658437C409.217915917312 411.3008607139237 405.8104830920361 410.35720809704037 402.7126341879127 409.60594062533755C399.61478528378933 408.85467315363474 399.2805902927516 408.0197377957179 396.1536159095785 404.19146160167014C393.0266415264054 400.3631854076223 386.2429479603702 394.06373916117457 387.7031571486818 391.2302148939081C389.16336633699336 388.39669062664166 398.23027089824205 390.2655841728234 403.162620013474 390.59054511879117C408.094969128706 390.915506064759 409.7407931859834 389.2052356955842 411.3784329017953 392.79002743455345C413.0160726176071 396.3748191735227 412.82866538142974 404.29423021776364 411.02329064937084 407.7975454658437 "></path></g></svg>