<svg xmlns="http://www.w3.org/2000/svg" version="1.1" xmlns:xlink="http://www.w3.org/1999/xlink" xmlns:svgjs="http://svgjs.dev/svgjs" viewBox="0 0 800 800"><defs><radialGradient id="cccircular-grad" r="50%" cx="50%" cy="50%">
         <stop offset="15%" stop-color="#001b6f" stop-opacity="0.5"></stop>
         <stop offset="75%" stop-color="hsl(230, 55%, 40%)" stop-opacity="1"></stop>
          <stop offset="100%" stop-color="#989aff" stop-opacity="1"></stop>
        </radialGradient></defs><g fill="url(#cccircular-grad)"><circle r="640" cx="400" cy="400"></circle><circle r="608" cx="400" cy="400"></circle><circle r="576" cx="400" cy="400"></circle><circle r="544" cx="400" cy="400"></circle><circle r="512" cx="400" cy="400"></circle><circle r="480" cx="400" cy="400"></circle><circle r="448" cx="400" cy="400"></circle><circle r="416" cx="400" cy="400"></circle><circle r="384" cx="400" cy="400"></circle><circle r="352" cx="400" cy="400"></circle><circle r="320" cx="400" cy="400"></circle><circle r="288" cx="400" cy="400"></circle><circle r="256" cx="400" cy="400"></circle><circle r="224" cx="400" cy="400"></circle><circle r="192" cx="400" cy="400"></circle><circle r="160" cx="400" cy="400"></circle><circle r="128" cx="400" cy="400"></circle><circle r="96" cx="400" cy="400"></circle><circle r="64" cx="400" cy="400"></circle></g></svg>